<?xml version="1.0" standalone="no"?>
<!DOCTYPE svg PUBLIC "-//W3C//DTD SVG 20010904//EN"
 "http://www.w3.org/TR/2001/REC-SVG-20010904/DTD/svg10.dtd">
<svg version="1.0" xmlns="http://www.w3.org/2000/svg"
 width="700.000000pt" height="700.000000pt" viewBox="0 0 700.000000 700.000000"
 preserveAspectRatio="xMidYMid meet">
<metadata>
Created by potrace 1.11, written by Peter Selinger 2001-2013
</metadata>
<g transform="translate(0.000000,700.000000) scale(0.100000,-0.100000)"
fill="#000000" stroke="none">
<path d="M1663 6839 c-46 -66 -176 -242 -203 -273 -121 -142 -185 -212 -320
-346 -199 -200 -379 -360 -550 -490 -25 -19 -47 -37 -50 -40 -8 -9 -242 -175
-290 -206 -25 -16 -49 -32 -54 -36 -5 -3 25 -57 66 -120 62 -93 133 -211 199
-332 6 -10 19 -34 30 -52 10 -18 46 -87 79 -154 34 -66 65 -120 69 -120 12 0
166 106 311 214 133 99 379 301 495 406 97 88 495 489 565 569 36 40 70 79 75
85 14 15 121 142 170 201 104 126 280 368 280 385 0 6 -76 42 -170 80 -93 38
-179 74 -190 79 -11 5 -78 33 -150 61 -205 83 -248 100 -278 116 -43 21 -53
18 -84 -27z"/>
<path d="M3109 6635 c-1 0 -2 -214 -4 -475 -2 -545 -5 -594 -47 -815 -77 -410
-296 -751 -646 -1002 l-43 -31 102 -57 c185 -103 524 -338 583 -403 l18 -21
-178 0 c-99 1 -199 0 -224 0 l-45 -1 1 -412 c1 -227 2 -416 3 -419 0 -4 165
-6 366 -5 295 1 362 -1 348 -11 -9 -7 -22 -13 -29 -13 -10 0 -86 -23 -277 -84
l-68 -21 100 -200 c103 -207 220 -410 331 -575 35 -52 66 -97 69 -100 4 -3 15
-18 26 -35 10 -16 45 -64 77 -105 77 -98 82 -105 142 -175 83 -97 81 -94 60
-102 -11 -4 -42 -21 -70 -39 -50 -32 -70 -44 -174 -101 -353 -195 -805 -374
-1192 -473 l-128 -33 49 -56 c78 -91 172 -225 278 -396 30 -49 85 -147 129
-232 26 -51 52 -93 58 -93 14 0 250 78 391 128 460 166 878 371 1257 614 l106
69 99 -69 c354 -246 851 -486 1268 -611 61 -18 119 -37 130 -42 53 -22 337
-91 345 -83 5 5 36 59 70 119 109 193 311 480 412 587 12 14 42 45 65 69 34
35 39 45 25 46 -24 2 -161 29 -247 48 -38 9 -89 20 -112 25 -61 13 -164 39
-193 49 -14 5 -59 19 -100 31 -122 36 -276 89 -425 147 -147 57 -575 264 -594
287 -9 10 3 29 55 82 83 87 240 273 325 384 35 47 66 87 69 90 3 3 10 13 15
22 6 9 40 61 76 115 156 233 327 554 434 815 14 35 30 72 35 83 32 72 154 434
148 440 -3 3 -30 15 -371 171 l-228 105 -82 -20 c-79 -18 -131 -19 -1300 -19
l-1219 1 54 46 c71 62 168 161 215 218 21 27 44 54 50 61 7 7 42 57 77 110
175 264 300 606 351 957 29 203 42 350 44 516 l1 75 408 0 407 0 1 -470 c1
-562 6 -662 45 -815 69 -270 275 -440 583 -479 99 -13 657 -8 739 7 171 30
301 92 397 191 85 88 136 199 169 373 18 98 22 123 36 247 4 30 8 69 10 86 2
16 6 82 10 145 4 63 8 124 10 136 4 27 3 28 -115 76 -193 78 -396 191 -505
281 -27 23 -57 46 -65 53 -13 10 -15 0 -16 -75 -1 -48 -4 -170 -8 -272 -14
-395 -30 -449 -133 -451 -128 -2 -219 3 -228 12 -6 6 -12 324 -15 892 l-5 882
-1292 0 c-711 0 -1294 0 -1294 0z m2026 -3647 c5 -5 -106 -187 -185 -303 -113
-165 -243 -323 -398 -484 l-72 -76 -91 95 c-179 187 -374 452 -497 677 l-50
92 96 3 c127 4 1193 0 1197 -4z"/>
<path d="M1884 5368 c-10 -18 -25 -44 -34 -58 -10 -14 -53 -79 -96 -145 -67
-102 -254 -359 -273 -375 -3 -3 -24 -27 -46 -55 -143 -181 -407 -462 -649
-690 -18 -17 -164 -146 -236 -209 -61 -53 -185 -150 -295 -231 -66 -48 -124
-91 -128 -95 -5 -4 18 -48 50 -96 56 -83 85 -132 140 -229 43 -76 210 -410
243 -487 l33 -77 41 32 c132 102 310 257 476 414 l65 62 3 -1473 2 -1474 440
0 440 0 0 1965 0 1965 68 86 c170 219 388 532 520 748 61 100 71 124 52 124
-6 0 -29 9 -53 19 -23 11 -145 63 -272 116 -126 53 -243 103 -260 110 -76 34
-200 85 -207 85 -4 0 -15 -15 -24 -32z"/>
</g>
</svg>
