<svg width="16" height="16" viewBox="0 0 16 16" fill="none"
  xmlns="http://www.w3.org/2000/svg">
  <path d="M14.7562 9.41164L7.98691 14L1.21759 9.41164C1.12684 9.34939 1.05953 9.26197 1.02528 9.16188C0.991026 9.06179 0.991597 8.95416 1.02691 8.85439L1.80236 6.61356L3.35327 2.16155C3.36831 2.12527 3.39225 2.09279 3.42318 2.0667C3.47355 2.02379 3.5393 2 3.60751 2C3.67573 2 3.74148 2.02379 3.79184 2.0667C3.8245 2.09614 3.84857 2.13287 3.86176 2.1734L5.41267 6.61356H10.5612L12.1121 2.16155C12.1271 2.12527 12.1511 2.09279 12.182 2.0667C12.2324 2.02379 12.2981 2 12.3663 2C12.4345 2 12.5003 2.02379 12.5506 2.0667C12.5833 2.09614 12.6074 2.13287 12.6206 2.1734L14.1715 6.62542L14.9787 8.85439C15.0108 8.95724 15.0065 9.067 14.9664 9.16738C14.9264 9.26777 14.8526 9.35342 14.7562 9.41164V9.41164Z" stroke-width="1.5" stroke-linecap="round" stroke-linejoin="round"/>
</svg>
