<svg width="20" height="19" viewBox="0 0 20 19" fill="none" xmlns="http://www.w3.org/2000/svg">
<path d="M11.22 2.83999H13.8V5.17999C13.8 6.49999 13.98 6.93999 14.36 7.31999C14.72 7.67999 15.32 7.83999 15.86 7.83999H17.06C17.44 7.83999 17.96 7.75999 18.26 7.59999C18.64 7.39999 18.88 7.13999 19.02 6.73999C19.18 6.33999 19.28 5.41999 19.32 4.57999C18.76 4.37999 17.96 3.99999 17.54 3.63999C17.52 4.37999 17.5 5.01999 17.46 5.29999C17.42 5.57999 17.34 5.69999 17.26 5.73999C17.2 5.77999 17.06 5.79999 16.96 5.79999H16.54C16.42 5.79999 16.32 5.77999 16.26 5.71999C16.2 5.63999 16.2 5.45999 16.2 5.09999V0.759986H8.95999V2.81999C8.95999 4.17999 8.73999 5.91999 6.93999 7.17999C7.45999 7.43999 8.49999 8.11999 8.89999 8.51999C10.86 7.03999 11.22 4.71999 11.22 2.87999V2.83999ZM4.81999 0.0799866C3.95999 1.41999 2.15999 3.05999 0.599994 4.03999C0.979994 4.53999 1.51999 5.51999 1.77999 6.03999C3.67999 4.81999 5.73999 2.83999 7.05999 0.979986L4.81999 0.0799866ZM5.43999 4.25999C4.23999 6.23999 2.23999 8.23999 0.399994 9.49999C0.799994 10.02 1.43999 11.26 1.65999 11.78C2.23999 11.34 2.81999 10.82 3.41999 10.24V18.72H5.71999V7.71999C6.39999 6.87999 7.03999 5.99999 7.55999 5.13999L5.43999 4.25999ZM14.9 10.8C14.36 11.82 13.64 12.72 12.8 13.52C11.96 12.72 11.28 11.82 10.78 10.8H14.9ZM16.54 8.55999L16.1 8.65999H7.57999V10.8H10.4L8.61999 11.34C9.25999 12.7 10.04 13.88 11 14.9C9.63999 15.76 8.11999 16.4 6.47999 16.8C6.91999 17.28 7.47999 18.18 7.77999 18.8C9.59999 18.26 11.3 17.5 12.8 16.5C14.24 17.54 15.98 18.32 18.04 18.8C18.38 18.16 19.02 17.2 19.56 16.68C17.7 16.34 16.06 15.74 14.7 14.94C16.22 13.48 17.4 11.62 18.14 9.27999L16.54 8.55999Z" fill="white"/>
</svg>
