<svg width="900" height="576" viewBox="0 0 900 576" fill="none" xmlns="http://www.w3.org/2000/svg">
<g clip-path="url(#clip0)">
<path opacity="0.07" d="M815 105.928C815 127.896 808.169 149.322 795.451 167.239C782.732 185.157 764.757 198.681 744.011 205.939C743.351 206.169 742.681 206.399 742.011 206.609V98.9724H603.262C603.302 98.3028 603.352 97.6333 603.412 96.9737H742.011V75.9481C742.011 74.6231 741.484 73.3525 740.546 72.4156C739.609 71.4786 738.338 70.952 737.012 70.9515H608.952C609.181 70.282 609.422 69.6124 609.681 68.9529C618.357 45.6791 634.938 26.1917 656.529 13.8952C678.119 1.59862 703.346 -2.72529 727.801 1.67884C752.257 6.08297 774.388 18.9351 790.326 37.99C806.264 57.0449 814.998 81.0911 815 105.928Z" fill="#7E7E7E"/>
<path d="M737.012 68.9529H250.087C248.231 68.9549 246.452 69.6926 245.14 71.004C243.828 72.3154 243.09 74.0935 243.088 75.9481V405.723C243.09 407.577 243.828 409.355 245.14 410.667C246.452 411.978 248.231 412.716 250.087 412.718H737.012C738.868 412.716 740.647 411.978 741.959 410.667C743.271 409.355 744.009 407.577 744.011 405.723V75.9481C744.009 74.0935 743.271 72.3154 741.959 71.004C740.647 69.6926 738.868 68.9549 737.012 68.9529ZM742.011 405.723C742.011 407.048 741.484 408.318 740.546 409.255C739.609 410.192 738.338 410.719 737.012 410.719H250.087C248.761 410.719 247.49 410.192 246.552 409.255C245.615 408.318 245.088 407.048 245.087 405.723V75.9481C245.088 74.6231 245.615 73.3525 246.552 72.4156C247.49 71.4786 248.761 70.952 250.087 70.9515H737.012C738.338 70.952 739.609 71.4786 740.546 72.4156C741.484 73.3525 742.011 74.6231 742.011 75.9481V405.723Z" fill="#3F3D56"/>
<path d="M743.011 96.9737H244.088V98.9723H743.011V96.9737Z" fill="#3F3D56"/>
<path d="M261.085 89.9385C264.398 89.9385 267.084 87.2541 267.084 83.9426C267.084 80.6312 264.398 77.9467 261.085 77.9467C257.772 77.9467 255.086 80.6312 255.086 83.9426C255.086 87.2541 257.772 89.9385 261.085 89.9385Z" fill="#3F3D56"/>
<path d="M278.332 89.9385C281.646 89.9385 284.331 87.2541 284.331 83.9426C284.331 80.6312 281.646 77.9467 278.332 77.9467C275.019 77.9467 272.333 80.6312 272.333 83.9426C272.333 87.2541 275.019 89.9385 278.332 89.9385Z" fill="#3F3D56"/>
<path d="M295.58 89.9385C298.893 89.9385 301.579 87.2541 301.579 83.9426C301.579 80.6312 298.893 77.9467 295.58 77.9467C292.266 77.9467 289.581 80.6312 289.581 83.9426C289.581 87.2541 292.266 89.9385 295.58 89.9385Z" fill="#3F3D56"/>
<path d="M380.067 137.906H292.08C290.225 137.908 288.446 138.645 287.134 139.957C285.821 141.268 285.083 143.046 285.081 144.901V232.841C285.083 234.695 285.821 236.474 287.134 237.785C288.446 239.096 290.225 239.834 292.08 239.836H380.067C381.922 239.834 383.701 239.096 385.013 237.785C386.326 236.474 387.064 234.695 387.066 232.841V144.901C387.064 143.046 386.326 141.268 385.013 139.957C383.701 138.645 381.922 137.908 380.067 137.906ZM385.066 232.841C385.065 234.166 384.539 235.436 383.601 236.373C382.664 237.31 381.392 237.837 380.067 237.837H292.08C290.755 237.837 289.483 237.31 288.546 236.373C287.608 235.436 287.082 234.166 287.081 232.841V144.901C287.082 143.576 287.608 142.305 288.546 141.368C289.483 140.432 290.755 139.905 292.08 139.904H380.067C381.392 139.905 382.664 140.432 383.601 141.368C384.539 142.305 385.065 143.576 385.066 144.901V232.841Z" fill="#3F3D56"/>
<path d="M538.043 138.405H450.056C448.333 138.409 446.682 139.094 445.464 140.312C444.246 141.529 443.56 143.179 443.557 144.901V232.841C443.56 234.563 444.246 236.213 445.464 237.43C446.682 238.648 448.333 239.333 450.056 239.336H538.043C539.765 239.333 541.416 238.648 542.634 237.43C543.852 236.213 544.538 234.563 544.542 232.841V144.901C544.538 143.179 543.852 141.529 542.634 140.312C541.416 139.094 539.765 138.409 538.043 138.405Z" fill="#6C43B5"/>
<path d="M696.018 138.405H608.032C606.309 138.409 604.658 139.094 603.44 140.312C602.222 141.529 601.536 143.179 601.533 144.901V232.841C601.536 234.563 602.222 236.213 603.44 237.43C604.658 238.648 606.309 239.333 608.032 239.336H696.018C697.741 239.333 699.392 238.648 700.61 237.43C701.828 236.213 702.514 234.563 702.517 232.841V144.901C702.514 143.179 701.828 141.529 700.61 140.312C699.392 139.094 697.741 138.409 696.018 138.405Z" fill="#1A1A1A"/>
<path d="M380.067 270.315H292.08C290.358 270.319 288.706 271.004 287.488 272.221C286.27 273.439 285.585 275.089 285.581 276.811V364.751C285.585 366.472 286.27 368.123 287.488 369.34C288.706 370.557 290.358 371.243 292.08 371.246H380.067C381.789 371.243 383.44 370.557 384.659 369.34C385.877 368.123 386.562 366.472 386.566 364.751V276.811C386.562 275.089 385.877 273.439 384.659 272.221C383.44 271.004 381.789 270.319 380.067 270.315Z" fill="#1A1A1A"/>
<path d="M538.043 270.315H450.056C448.333 270.319 446.682 271.004 445.464 272.221C444.246 273.439 443.56 275.089 443.557 276.811V364.751C443.56 366.472 444.246 368.123 445.464 369.34C446.682 370.557 448.333 371.243 450.056 371.246H538.043C539.765 371.243 541.416 370.557 542.634 369.34C543.852 368.123 544.538 366.472 544.542 364.751V276.811C544.538 275.089 543.852 273.439 542.634 272.221C541.416 271.004 539.765 270.319 538.043 270.315Z" fill="#6C43B5"/>
<path d="M696.018 270.315H608.032C606.309 270.319 604.658 271.004 603.44 272.221C602.222 273.439 601.536 275.089 601.533 276.811V364.751C601.536 366.472 602.222 368.123 603.44 369.34C604.658 370.557 606.309 371.243 608.032 371.246H696.018C697.741 371.243 699.392 370.557 700.61 369.34C701.828 368.123 702.514 366.472 702.517 364.751V276.811C702.514 275.089 701.828 273.439 700.61 272.221C699.392 271.004 697.741 270.319 696.018 270.315Z" fill="#1A1A1A"/>
<path d="M358.57 284.805H270.584C268.86 284.803 267.209 284.118 265.99 282.901C264.772 281.683 264.087 280.032 264.085 278.31V190.37C264.087 188.648 264.772 186.997 265.99 185.779C267.209 184.561 268.86 183.876 270.584 183.874H358.57C360.293 183.876 361.945 184.561 363.163 185.779C364.382 186.997 365.067 188.648 365.069 190.37V278.31C365.067 280.032 364.382 281.683 363.163 282.901C361.945 284.118 360.293 284.803 358.57 284.805Z" fill="#6C43B5"/>
<path d="M223.715 491.752L235.433 488.157L227.138 441.271L209.843 446.576L223.715 491.752Z" fill="#A0616A"/>
<path d="M261.373 492.101L224.543 503.398L220.176 489.176L242.776 482.244C244.645 481.671 246.608 481.471 248.554 481.656C250.5 481.841 252.39 482.408 254.117 483.323C255.844 484.238 257.373 485.485 258.618 486.991C259.863 488.497 260.799 490.234 261.373 492.101Z" fill="#2F2E41"/>
<path d="M123.732 492.022L135.99 492.021L141.821 444.765L123.73 444.766L123.732 492.022Z" fill="#A0616A"/>
<path d="M159.631 503.396L121.106 503.398L121.105 488.521L144.745 488.52C146.7 488.52 148.636 488.905 150.442 489.652C152.247 490.4 153.888 491.496 155.271 492.877C156.653 494.258 157.749 495.898 158.497 497.703C159.246 499.508 159.631 501.443 159.631 503.396L159.631 503.396Z" fill="#2F2E41"/>
<path d="M122.853 355.038C121.846 354.155 121.044 353.063 120.505 351.838C119.966 350.612 119.703 349.284 119.733 347.946C119.763 346.607 120.087 345.292 120.681 344.092C121.275 342.893 122.125 341.838 123.171 341.002L132.675 221.389L152.002 226.215L136.527 342.894C137.816 344.743 138.381 347.001 138.115 349.239C137.85 351.477 136.772 353.54 135.087 355.037C133.401 356.533 131.225 357.36 128.97 357.361C126.715 357.361 124.539 356.534 122.853 355.038Z" fill="#A0616A"/>
<path d="M161.558 174.997C175.12 174.997 186.115 164.008 186.115 150.452C186.115 136.897 175.12 125.908 161.558 125.908C147.995 125.908 137 136.897 137 150.452C137 164.008 147.995 174.997 161.558 174.997Z" fill="#A0616A"/>
<path d="M140.204 217.71C134.663 210.107 134.492 199.635 140.461 192.363C144.357 187.617 150.872 183.819 161.751 183.819C190.746 183.819 201.744 206.804 201.744 206.804C201.744 206.804 213.743 228.789 206.744 248.775C199.745 268.761 199.745 270.76 199.745 270.76L153.752 266.763C153.752 266.763 161.511 246.945 140.204 217.71Z" fill="#CCCCCC"/>
<path d="M126.021 237.605L135.93 205.206C136.593 203.037 137.725 201.039 139.246 199.355C140.767 197.672 142.639 196.342 144.731 195.461C146.822 194.579 149.082 194.168 151.35 194.256C153.618 194.343 155.839 194.928 157.856 195.967C161.356 197.779 164.036 200.853 165.352 204.566C166.668 208.279 166.522 212.354 164.943 215.963L152.347 244.635L126.021 237.605Z" fill="#CCCCCC"/>
<path d="M198.745 265.763L237.739 467.625L216.742 473.621L165.75 340.712L142.753 476.619L120.757 479.617C120.757 479.617 111.108 299.795 153.752 266.763L198.745 265.763Z" fill="#2F2E41"/>
<path d="M254.867 256.302C254.512 256.726 254.19 257.177 253.905 257.651L204.377 260.051L194.841 230.951L178.281 238.817L193.867 282.159L255.119 270.186C256.559 271.757 258.442 272.852 260.52 273.327C262.597 273.801 264.77 273.632 266.749 272.843C268.728 272.053 270.42 270.68 271.599 268.906C272.778 267.132 273.389 265.041 273.35 262.912C273.312 260.782 272.625 258.715 271.383 256.985C270.14 255.255 268.399 253.944 266.393 253.226C264.387 252.509 262.209 252.419 260.15 252.968C258.092 253.518 256.249 254.681 254.867 256.302Z" fill="#A0616A"/>
<path d="M171.352 209.706C171.087 207.453 171.32 205.169 172.035 203.016C172.75 200.863 173.929 198.893 175.49 197.246C177.05 195.598 178.954 194.314 181.066 193.483C183.178 192.651 185.447 192.294 187.712 192.436C191.645 192.688 195.335 194.426 198.034 197.297C200.733 200.168 202.238 203.957 202.244 207.897V239.21L175.312 243.352L171.352 209.706Z" fill="#CCCCCC"/>
<path d="M166.958 175.219C163.272 175.203 160.429 171.325 160.594 167.645C160.76 163.964 163.233 160.726 166.212 158.558C169.192 156.389 172.686 155.068 176.009 153.474C179.331 151.88 182.625 149.891 184.677 146.83C185.916 144.827 186.656 142.556 186.834 140.207C187.012 137.859 186.623 135.502 185.7 133.335C183.791 129.001 180.513 125.412 176.368 123.118C170.211 119.516 162.923 118.364 155.954 119.892C148.986 121.42 142.849 125.515 138.767 131.363L134.559 142.813C130.272 147.965 129.592 155.617 132.227 161.779C134.863 167.942 140.474 172.578 146.806 174.782C153.231 176.845 160.108 177.051 166.644 175.376" fill="#2F2E41"/>
<path d="M144.515 137.085C142.706 134.188 139.571 132.345 136.33 131.264C132.576 130.011 128.583 129.641 124.662 130.183C120.741 130.725 116.998 132.164 113.724 134.389C110.451 136.613 107.735 139.563 105.789 143.008C103.843 146.453 102.718 150.3 102.503 154.251C102.16 160.561 104.137 166.731 105.298 172.943C106.46 179.155 106.691 186.016 103.264 191.326C100.654 195.372 96.3013 197.918 92.005 200.093C88.4243 201.906 84.5511 203.606 80.5537 203.245C76.5562 202.884 72.5385 199.72 72.6445 195.709C71.3063 198.585 70.4027 201.643 69.9633 204.783C69.6821 207.937 70.4598 211.34 72.7389 213.539C76.0515 216.736 81.3002 216.502 85.8526 215.812C95.708 214.319 105.688 211.52 113.474 205.299C121.26 199.079 126.427 188.835 124.376 179.086C123.52 175.013 121.507 171.295 119.88 167.464C118.253 163.633 116.984 159.443 117.731 155.348C118.173 153.239 119.073 151.253 120.368 149.529C121.662 147.805 123.319 146.387 125.222 145.373C129.071 143.373 133.474 142.706 137.743 143.476C140.542 143.935 144.036 144.647 145.696 142.349C146.136 141.621 146.36 140.783 146.344 139.933C146.327 139.082 146.07 138.254 145.602 137.544C144.645 136.138 143.425 134.931 142.01 133.987" fill="#2F2E41"/>
</g>
<defs>
<clipPath id="clip0">
<rect width="800" height="504" fill="white" transform="translate(18)"/>
</clipPath>
</defs>
</svg>
