<svg width="16" height="16" viewBox="0 0 16 16" fill="none"
  xmlns="http://www.w3.org/2000/svg">
  <path d="M9.66667 6.66671C9.11334 6.66671 8.66667 6.22004 8.66667 5.66671V2.33337C8.66667 1.78004 9.11334 1.33337 9.66667 1.33337C10.22 1.33337 10.6667 1.78004 10.6667 2.33337V5.66671C10.6667 6.22004 10.22 6.66671 9.66667 6.66671Z" stroke-width="1.5" stroke-linecap="round" stroke-linejoin="round"/>
  <path d="M13.6667 6.66663H12.6667V5.66663C12.6667 5.11329 13.1133 4.66663 13.6667 4.66663C14.22 4.66663 14.6667 5.11329 14.6667 5.66663C14.6667 6.21996 14.22 6.66663 13.6667 6.66663Z" stroke-width="1.5" stroke-linecap="round" stroke-linejoin="round"/>
  <path d="M6.33333 9.33337C6.88666 9.33337 7.33333 9.78004 7.33333 10.3334V13.6667C7.33333 14.22 6.88666 14.6667 6.33333 14.6667C5.77999 14.6667 5.33333 14.22 5.33333 13.6667V10.3334C5.33333 9.78004 5.77999 9.33337 6.33333 9.33337Z" stroke-width="1.5" stroke-linecap="round" stroke-linejoin="round"/>
  <path d="M2.33333 9.33337H3.33333V10.3334C3.33333 10.8867 2.88666 11.3334 2.33333 11.3334C1.77999 11.3334 1.33333 10.8867 1.33333 10.3334C1.33333 9.78004 1.77999 9.33337 2.33333 9.33337Z" stroke-width="1.5" stroke-linecap="round" stroke-linejoin="round"/>
  <path d="M9.33333 9.66663C9.33333 9.11329 9.77999 8.66663 10.3333 8.66663H13.6667C14.22 8.66663 14.6667 9.11329 14.6667 9.66663C14.6667 10.22 14.22 10.6666 13.6667 10.6666H10.3333C9.77999 10.6666 9.33333 10.22 9.33333 9.66663Z" stroke-width="1.5" stroke-linecap="round" stroke-linejoin="round"/>
  <path d="M10.3333 12.6666H9.33333V13.6666C9.33333 14.22 9.77999 14.6666 10.3333 14.6666C10.8867 14.6666 11.3333 14.22 11.3333 13.6666C11.3333 13.1133 10.8867 12.6666 10.3333 12.6666Z" stroke-width="1.5" stroke-linecap="round" stroke-linejoin="round"/>
  <path d="M6.66666 6.33337C6.66666 5.78004 6.21999 5.33337 5.66666 5.33337H2.33333C1.77999 5.33337 1.33333 5.78004 1.33333 6.33337C1.33333 6.88671 1.77999 7.33337 2.33333 7.33337H5.66666C6.21999 7.33337 6.66666 6.88671 6.66666 6.33337Z" stroke-width="1.5" stroke-linecap="round" stroke-linejoin="round"/>
  <path d="M5.66667 3.33337H6.66667V2.33337C6.66667 1.78004 6.22001 1.33337 5.66667 1.33337C5.11334 1.33337 4.66667 1.78004 4.66667 2.33337C4.66667 2.88671 5.11334 3.33337 5.66667 3.33337Z" stroke-width="1.5" stroke-linecap="round" stroke-linejoin="round"/>
</svg>
